<svg width="594" height="347" viewBox="0 0 594 347" fill="none" xmlns="http://www.w3.org/2000/svg">
<g clip-path="url(#clip0_362_219)">
<path d="M162.182 292.573C178.307 292.573 191.38 279.496 191.38 263.366C191.38 247.235 178.307 234.158 162.182 234.158C146.056 234.158 132.983 247.235 132.983 263.366C132.983 279.496 146.056 292.573 162.182 292.573Z" fill="#5BC0BE"/>
<path opacity="0.2" d="M140.622 243.857C137.899 250.23 137.529 257.364 139.58 263.984C141.631 270.605 145.968 276.28 151.816 279.996C157.665 283.712 164.644 285.226 171.506 284.269C178.368 283.312 184.667 279.945 189.275 274.77C187.612 278.663 185.122 282.148 181.978 284.984C178.834 287.819 175.111 289.937 171.068 291.19C167.025 292.443 162.757 292.802 158.561 292.242C154.366 291.682 150.342 290.216 146.769 287.946C143.195 285.675 140.158 282.655 137.868 279.094C135.577 275.533 134.088 271.517 133.504 267.323C132.919 263.129 133.253 258.859 134.482 254.807C135.711 250.755 137.807 247.019 140.622 243.857Z" fill="black"/>
<path d="M162.262 263.365H162.342L163.786 346.173H160.737L162.262 263.365Z" fill="#3F3D56"/>
<path d="M103.105 238.105C135.617 238.105 161.974 211.741 161.974 179.218C161.974 146.696 135.617 120.331 103.105 120.331C70.5924 120.331 44.2358 146.696 44.2358 179.218C44.2358 211.741 70.5924 238.105 103.105 238.105Z" fill="#5BC0BE"/>
<path opacity="0.2" d="M59.6378 139.886C54.1466 152.735 53.4017 167.118 57.5362 180.466C61.6706 193.813 70.415 205.256 82.2068 212.748C93.9986 220.24 108.069 223.293 121.905 221.363C135.74 219.433 148.439 212.644 157.731 202.211C154.377 210.061 149.356 217.087 143.017 222.804C136.679 228.52 129.173 232.79 121.021 235.317C112.869 237.844 104.265 238.568 95.8059 237.438C87.3464 236.309 79.2336 233.353 72.0294 228.776C64.8253 224.199 58.7021 218.109 54.0842 210.93C49.4662 203.75 46.4639 195.653 45.2852 187.197C44.1065 178.742 44.7796 170.131 47.2578 161.962C49.7361 153.793 53.9603 146.26 59.6378 139.886Z" fill="black"/>
<path d="M103.266 179.218H103.428L106.34 346.173H100.194L103.266 179.218Z" fill="#3F3D56"/>
<path d="M491.23 259.758H221.4V339.772H491.23V259.758Z" fill="#F0F0F0"/>
<path d="M372.046 276.294H340.584V339.772H372.046V276.294Z" fill="#CACACA"/>
<path d="M475.499 165.342H237.131V238.955H475.499V165.342Z" fill="#F0F0F0"/>
<path d="M499.665 169.876H212.965C212.486 169.876 212.019 169.733 211.622 169.465C211.225 169.197 210.918 168.816 210.739 168.372C210.56 167.928 210.518 167.441 210.619 166.972C210.719 166.504 210.957 166.077 211.302 165.745L289.657 90.4058V57.5897C289.658 56.9533 289.911 56.3432 290.361 55.8932C290.811 55.4432 291.421 55.1901 292.057 55.1893H307.522C308.158 55.19 308.768 55.4432 309.218 55.8932C309.668 56.3432 309.921 56.9533 309.921 57.5897V70.9223L315.84 65.2317C325.524 55.9196 338.374 50.6193 351.805 50.3958C365.237 50.1724 378.255 55.0425 388.244 64.0273L501.269 165.69C501.63 166.015 501.884 166.442 501.998 166.914C502.112 167.386 502.079 167.881 501.905 168.335C501.732 168.788 501.424 169.178 501.024 169.453C500.624 169.729 500.15 169.876 499.665 169.876Z" fill="#CACACA"/>
<path d="M300.056 184.012C302.052 184.012 304.028 184.405 305.872 185.169C307.716 185.933 309.391 187.053 310.802 188.464C312.214 189.876 313.333 191.552 314.097 193.397C314.861 195.241 315.254 197.218 315.254 199.214V219.751H284.858V199.214C284.858 195.182 286.459 191.315 289.309 188.464C292.159 185.613 296.025 184.012 300.056 184.012Z" fill="white"/>
<path d="M356.315 184.278C358.311 184.278 360.287 184.672 362.131 185.436C363.975 186.2 365.65 187.319 367.061 188.731C368.473 190.143 369.592 191.819 370.356 193.663C371.12 195.508 371.513 197.485 371.513 199.481V220.018H341.117V199.481C341.117 197.485 341.51 195.508 342.274 193.663C343.038 191.819 344.157 190.143 345.568 188.731C346.98 187.319 348.655 186.2 350.499 185.436C352.343 184.672 354.319 184.278 356.315 184.278Z" fill="white"/>
<path d="M412.574 184.545C414.57 184.545 416.546 184.938 418.39 185.702C420.234 186.466 421.909 187.586 423.32 188.998C424.732 190.41 425.851 192.085 426.615 193.93C427.379 195.774 427.772 197.751 427.772 199.748V220.285H397.376V199.748C397.376 197.751 397.769 195.774 398.533 193.93C399.297 192.085 400.416 190.41 401.827 188.998C403.239 187.586 404.914 186.466 406.758 185.702C408.602 184.938 410.578 184.545 412.574 184.545Z" fill="white"/>
<path d="M434.971 275.494C439.002 275.494 442.867 277.096 445.717 279.947C448.568 282.798 450.169 286.665 450.169 290.697V311.234H419.773V290.697C419.773 286.665 421.374 282.798 424.224 279.947C427.074 277.096 430.94 275.494 434.971 275.494Z" fill="white"/>
<path d="M284.591 275.494C288.622 275.494 292.488 277.096 295.338 279.947C298.188 282.798 299.789 286.665 299.789 290.697V311.234H269.393V290.697C269.393 288.7 269.787 286.724 270.55 284.879C271.314 283.035 272.434 281.359 273.845 279.947C275.256 278.535 276.931 277.415 278.775 276.651C280.619 275.887 282.596 275.494 284.591 275.494Z" fill="white"/>
<path d="M530.651 261.008L480.034 238.604C479.762 238.483 479.468 238.421 479.171 238.421H237.938C237.663 238.421 237.39 238.474 237.135 238.578L182.038 260.982C181.58 261.168 181.201 261.508 180.965 261.944C180.73 262.379 180.653 262.882 180.748 263.368C180.843 263.854 181.104 264.291 181.486 264.606C181.868 264.92 182.347 265.092 182.842 265.092H197.137V338.705H195.537V346.173H517.093V338.705H514.427V265.092H529.788C530.277 265.092 530.751 264.924 531.131 264.616C531.511 264.308 531.774 263.879 531.875 263.4C531.976 262.921 531.91 262.422 531.687 261.987C531.464 261.551 531.098 261.205 530.651 261.008ZM510.161 338.705H201.403V265.092H510.161V338.705Z" fill="#CACACA"/>
<path d="M318.987 216.817H280.059V223.218H318.987V216.817Z" fill="#CACACA"/>
<path d="M376.046 216.817H337.118V223.218H376.046V216.817Z" fill="#CACACA"/>
<path d="M433.104 216.817H394.176V223.218H433.104V216.817Z" fill="#CACACA"/>
<path d="M454.435 309.1H415.507V315.501H454.435V309.1Z" fill="#CACACA"/>
<path d="M303.522 309.1H264.594V315.501H303.522V309.1Z" fill="#CACACA"/>
<path d="M593.346 346.5H0.653465C0.480156 346.5 0.313944 346.431 0.191395 346.309C0.0688465 346.186 0 346.02 0 345.846C0 345.673 0.0688465 345.507 0.191395 345.384C0.313944 345.262 0.480156 345.193 0.653465 345.193H593.346C593.52 345.193 593.686 345.262 593.809 345.384C593.931 345.507 594 345.673 594 345.846C594 346.02 593.931 346.186 593.809 346.309C593.686 346.431 593.52 346.5 593.346 346.5Z" fill="#3F3D56"/>
<path d="M436.507 291.369L436.323 289.072C436.084 288.17 433.833 290.998 433.564 291.06C432.854 290.91 432.124 290.877 431.402 290.962C431.499 286.84 430.865 288.709 429.024 290.569C423.092 293.577 425.267 303.08 432.021 303.128C438.18 303.487 441.244 295.113 436.507 291.369Z" fill="#3F3D56"/>
<path d="M437.341 300.691C439.797 300.652 442.888 309.275 437.067 309.319C434.055 309.342 428.722 309.93 428.722 309.93C428.722 309.93 424.577 303.707 426.426 299.836L437.341 300.691Z" fill="#3F3D56"/>
<path d="M431.938 305.248V309.715H434.026L435.682 305.166" fill="#3F3D56"/>
<path d="M434.026 309.797C433.984 309.75 431.768 309.897 431.856 309.715L431.856 305.248C432.226 304.649 431.929 309.691 432.019 309.634H433.969C434.065 309.577 435.506 305.002 435.71 305.09C435.72 305.093 435.73 305.099 435.737 305.106C435.745 305.113 435.752 305.122 435.756 305.132C435.761 305.141 435.763 305.152 435.764 305.163C435.764 305.173 435.763 305.184 435.759 305.194C435.682 305.25 434.182 309.825 434.026 309.797Z" fill="white"/>
<path d="M439.061 309.441C439.12 310.176 435.583 310.176 435.642 309.441C435.583 308.707 439.12 308.707 439.061 309.441Z" fill="#3F3D56"/>
<path d="M436.497 308.953C436.293 309.003 435.602 305.613 437.701 305.134C435.659 306.223 436.711 308.739 436.497 308.953Z" fill="white"/>
<path d="M439.396 308.208C439.385 308.192 439.376 308.175 439.366 308.158L439.1 308.168L439.396 308.208Z" fill="#3F3D56"/>
<path d="M448.268 305.627C447.065 303.837 444.742 304.651 443.833 306.288C442.754 308.263 438.148 306.794 438.723 309.447C441.599 308.839 450.112 310.917 448.268 305.627Z" fill="#3F3D56"/>
<path d="M431.666 302.54C429.777 302.909 426.446 300.568 426.357 299.878C426.346 299.86 426.343 299.838 426.348 299.817C426.354 299.797 426.367 299.779 426.385 299.768C426.403 299.757 426.424 299.754 426.445 299.758C426.466 299.763 426.484 299.775 426.495 299.793C427.138 300.706 428.023 301.421 429.051 301.858C430.642 302.664 433.55 302.683 437.411 300.65C435.728 301.839 433.727 302.497 431.666 302.54Z" fill="white"/>
<path d="M432.019 298.407C431.593 298.54 431.223 297.51 431.612 297.837C431.612 297.945 431.655 298.049 431.732 298.125C431.808 298.201 431.911 298.244 432.019 298.244C432.367 298.279 432.351 297.899 432.508 297.756C432.779 297.974 432.314 298.448 432.019 298.407Z" fill="white"/>
<path d="M431.246 309.455C431.084 309.477 429.942 305.375 429.866 305.313C429.859 305.292 429.861 305.27 429.871 305.251C429.881 305.232 429.898 305.217 429.919 305.211C430.132 305.126 431.227 309.294 431.324 309.349C431.327 309.361 431.328 309.374 431.326 309.387C431.324 309.399 431.319 309.411 431.311 309.422C431.304 309.432 431.294 309.44 431.283 309.446C431.271 309.452 431.259 309.455 431.246 309.455Z" fill="white"/>
<path d="M434.665 310.011C434.724 310.746 431.187 310.746 431.246 310.011C431.187 309.277 434.724 309.277 434.665 310.011Z" fill="#3F3D56"/>
<path d="M431.897 309.93C431.956 310.664 428.419 310.664 428.478 309.93C428.419 309.196 431.956 309.196 431.897 309.93Z" fill="#3F3D56"/>
<path d="M432.711 296.819C432.732 297.143 431.388 297.143 431.409 296.819C431.388 296.496 432.732 296.496 432.711 296.819Z" fill="white"/>
<path d="M427.681 296.838C427.868 296.615 428.101 296.437 428.364 296.314C428.628 296.191 428.915 296.128 429.205 296.128C429.495 296.128 429.782 296.191 430.046 296.314C430.309 296.437 430.542 296.615 430.729 296.838C432.829 294.89 429.723 291.636 427.681 293.644C427.465 293.851 427.294 294.098 427.176 294.373C427.059 294.647 426.999 294.943 426.999 295.241C426.999 295.539 427.059 295.835 427.177 296.109C427.294 296.384 427.465 296.632 427.681 296.838Z" fill="white"/>
<path d="M433.64 296.838C433.827 296.615 434.06 296.437 434.323 296.314C434.586 296.191 434.873 296.128 435.164 296.128C435.454 296.128 435.741 296.191 436.004 296.314C436.268 296.437 436.501 296.615 436.688 296.838C438.788 294.89 435.682 291.636 433.64 293.644C433.424 293.851 433.252 294.098 433.135 294.373C433.018 294.647 432.958 294.943 432.958 295.241C432.958 295.539 433.018 295.835 433.135 296.109C433.253 296.384 433.424 296.632 433.64 296.838Z" fill="white"/>
<path d="M428.237 294.696C428.435 294.702 428.623 294.784 428.761 294.926C428.899 295.068 428.976 295.258 428.976 295.456C428.976 295.654 428.899 295.844 428.761 295.986C428.623 296.127 428.435 296.21 428.237 296.215C428.04 296.21 427.852 296.127 427.714 295.985C427.576 295.844 427.499 295.654 427.499 295.456C427.499 295.258 427.576 295.068 427.714 294.926C427.852 294.784 428.04 294.702 428.237 294.696Z" fill="#3F3D56"/>
<path d="M434.196 294.696C434.394 294.702 434.582 294.784 434.72 294.926C434.858 295.068 434.935 295.258 434.935 295.456C434.935 295.654 434.858 295.844 434.72 295.986C434.582 296.127 434.394 296.21 434.196 296.215C433.998 296.21 433.81 296.127 433.672 295.985C433.534 295.844 433.457 295.654 433.457 295.456C433.457 295.258 433.534 295.068 433.672 294.926C433.81 294.784 433.998 294.702 434.196 294.696Z" fill="#3F3D56"/>
<path d="M435.235 297.114C435.408 297.119 435.573 297.191 435.694 297.315C435.815 297.439 435.882 297.606 435.882 297.779C435.882 297.953 435.815 298.119 435.694 298.244C435.573 298.368 435.408 298.44 435.235 298.445C435.061 298.44 434.897 298.368 434.776 298.244C434.655 298.119 434.587 297.953 434.587 297.779C434.587 297.606 434.655 297.439 434.776 297.315C434.897 297.191 435.062 297.119 435.235 297.114Z" fill="#FF6584"/>
<path d="M429.223 297.114C429.396 297.119 429.561 297.191 429.682 297.315C429.803 297.439 429.871 297.606 429.871 297.779C429.871 297.953 429.803 298.119 429.682 298.244C429.561 298.368 429.396 298.44 429.223 298.445C429.05 298.44 428.885 298.368 428.764 298.244C428.643 298.119 428.576 297.953 428.576 297.779C428.576 297.606 428.643 297.439 428.764 297.315C428.885 297.191 429.05 297.119 429.223 297.114Z" fill="#FF6584"/>
<path d="M238.312 38.5617C238.144 38.5615 237.982 38.4975 237.859 38.3827C237.736 38.2678 237.661 38.1106 237.649 37.9426C237.214 32.0289 234.562 26.4977 230.225 22.4557C225.888 18.4137 220.185 16.1592 214.257 16.1432C213.547 16.1432 212.802 16.1793 212.042 16.2505C211.915 16.2624 211.787 16.2375 211.673 16.1786C211.56 16.1198 211.466 16.0295 211.402 15.9186C208.679 11.151 204.613 7.29106 199.711 4.8206C194.809 2.35013 189.288 1.37851 183.837 2.02699C178.386 2.67547 173.247 4.91532 169.061 8.46703C164.875 12.0187 161.827 16.725 160.298 21.9985C160.258 22.1398 160.171 22.2637 160.053 22.3506C159.935 22.4376 159.791 22.4826 159.644 22.4787L159.467 22.4734C159.375 22.4703 159.283 22.467 159.19 22.467C154.694 22.4811 150.338 24.0326 146.844 26.864C143.351 29.6953 140.93 33.6364 139.984 38.0333C139.952 38.1828 139.87 38.3168 139.752 38.413C139.633 38.5092 139.485 38.5617 139.333 38.5617H94.7503C94.6627 38.562 94.576 38.5449 94.495 38.5116C94.414 38.4783 94.3404 38.4293 94.2784 38.3675C94.2164 38.3056 94.1672 38.2321 94.1336 38.1512C94.1 38.0703 94.0828 37.9836 94.0828 37.896C94.0828 37.8084 94.1 37.7217 94.1336 37.6408C94.1672 37.5599 94.2164 37.4864 94.2784 37.4246C94.3404 37.3627 94.414 37.3138 94.495 37.2804C94.576 37.2471 94.6627 37.2301 94.7503 37.2304H138.8C139.909 32.657 142.517 28.5869 146.209 25.6697C149.9 22.7525 154.462 21.1563 159.167 21.1357C160.842 15.7165 164.054 10.9005 168.413 7.27272C172.772 3.64493 178.09 1.36153 183.722 0.699906C189.354 0.0382838 195.057 1.02693 200.137 3.54572C205.218 6.06451 209.458 10.005 212.343 14.8886C212.997 14.8376 213.639 14.8119 214.257 14.8119C220.521 14.8289 226.548 17.2115 231.132 21.4831C235.715 25.7546 238.517 31.5999 238.977 37.8494C238.983 37.9366 238.972 38.0242 238.944 38.1071C238.916 38.19 238.872 38.2667 238.815 38.3327C238.758 38.3987 238.688 38.4527 238.61 38.4917C238.532 38.5308 238.446 38.554 238.359 38.5601C238.343 38.5612 238.328 38.5617 238.312 38.5617Z" fill="#CBCBCB"/>
<path d="M230.394 47.0967H121.259C121.082 47.0967 120.913 47.0266 120.788 46.9017C120.663 46.7769 120.593 46.6076 120.593 46.431C120.593 46.2545 120.663 46.0852 120.788 45.9603C120.913 45.8355 121.082 45.7654 121.259 45.7654H230.394C230.571 45.7654 230.74 45.8355 230.865 45.9603C230.99 46.0852 231.06 46.2545 231.06 46.431C231.06 46.6076 230.99 46.7769 230.865 46.9017C230.74 47.0266 230.571 47.0967 230.394 47.0967Z" fill="#CBCBCB"/>
<path d="M147.877 56.7489H111.277C111.1 56.7489 110.931 56.6788 110.806 56.5539C110.681 56.4291 110.611 56.2598 110.611 56.0832C110.611 55.9067 110.681 55.7374 110.806 55.6125C110.931 55.4877 111.1 55.4176 111.277 55.4176H147.877C148.054 55.4176 148.223 55.4877 148.348 55.6125C148.472 55.7374 148.543 55.9067 148.543 56.0832C148.543 56.2598 148.472 56.4291 148.348 56.5539C148.223 56.6788 148.054 56.7489 147.877 56.7489Z" fill="#CBCBCB"/>
<path d="M587.916 88.2404C587.748 88.2403 587.586 88.1763 587.463 88.0614C587.34 87.9466 587.265 87.7893 587.253 87.6214C586.818 81.7077 584.166 76.1764 579.829 72.1344C575.492 68.0925 569.789 65.8379 563.861 65.822C563.151 65.822 562.406 65.858 561.646 65.9292C561.519 65.9412 561.391 65.9162 561.277 65.8574C561.164 65.7985 561.07 65.7083 561.006 65.5974C558.283 60.8297 554.217 56.9698 549.315 54.4994C544.413 52.0289 538.892 51.0573 533.441 51.7057C527.99 52.3542 522.851 54.5941 518.665 58.1458C514.479 61.6975 511.431 66.4038 509.902 71.6773C509.862 71.8186 509.775 71.9425 509.657 72.0294C509.539 72.1163 509.395 72.1614 509.248 72.1575L509.071 72.1521C508.979 72.149 508.887 72.1458 508.794 72.1458C504.298 72.1599 499.942 73.7113 496.448 76.5427C492.955 79.3741 490.534 83.3152 489.588 87.7121C489.556 87.8615 489.474 87.9956 489.356 88.0918C489.237 88.188 489.089 88.2405 488.937 88.2405H444.354C444.267 88.2407 444.18 88.2237 444.099 88.1904C444.018 88.1571 443.944 88.1081 443.882 88.0462C443.82 87.9844 443.771 87.9109 443.738 87.83C443.704 87.7491 443.687 87.6624 443.687 87.5748C443.687 87.4872 443.704 87.4005 443.738 87.3196C443.771 87.2387 443.82 87.1652 443.882 87.1033C443.944 87.0415 444.018 86.9925 444.099 86.9592C444.18 86.9259 444.267 86.9089 444.354 86.9091H488.404C489.513 82.3357 492.121 78.2657 495.813 75.3485C499.504 72.4313 504.066 70.835 508.771 70.8145C510.446 65.3953 513.658 60.5793 518.017 56.9515C522.376 53.3237 527.694 51.0403 533.326 50.3787C538.958 49.7171 544.661 50.7057 549.741 53.2245C554.822 55.7433 559.062 59.6838 561.947 64.5674C562.601 64.5163 563.243 64.4907 563.861 64.4907C570.125 64.5076 576.152 66.8903 580.736 71.1618C585.319 75.4334 588.121 81.2787 588.581 87.5282C588.587 87.6154 588.576 87.7029 588.548 87.7859C588.52 87.8688 588.476 87.9454 588.419 88.0114C588.362 88.0774 588.292 88.1315 588.214 88.1705C588.136 88.2095 588.051 88.2327 587.963 88.2388C587.947 88.2399 587.932 88.2404 587.916 88.2404Z" fill="#CBCBCB"/>
<path d="M579.998 96.7755H470.863C470.686 96.7755 470.517 96.7053 470.392 96.5805C470.267 96.4557 470.197 96.2863 470.197 96.1098C470.197 95.9332 470.267 95.7639 470.392 95.6391C470.517 95.5143 470.686 95.4441 470.863 95.4441H579.998C580.175 95.4441 580.344 95.5143 580.469 95.6391C580.594 95.7639 580.664 95.9332 580.664 96.1098C580.664 96.2863 580.594 96.4557 580.469 96.5805C580.344 96.7053 580.175 96.7755 579.998 96.7755Z" fill="#CBCBCB"/>
<path d="M497.481 106.428H460.881C460.704 106.428 460.535 106.357 460.41 106.233C460.285 106.108 460.215 105.939 460.215 105.762C460.215 105.585 460.285 105.416 460.41 105.291C460.535 105.166 460.704 105.096 460.881 105.096H497.481C497.658 105.096 497.827 105.166 497.952 105.291C498.077 105.416 498.147 105.585 498.147 105.762C498.147 105.939 498.077 106.108 497.952 106.233C497.827 106.357 497.658 106.428 497.481 106.428Z" fill="#CBCBCB"/>
<path d="M117.296 334.754C125.73 337.176 125.83 325.253 127.172 319.888C122.405 323.135 114.367 327.764 117.327 334.609" fill="#5BC0BE"/>
<path d="M117.761 344.004C116.653 337.736 116.583 329.797 122.732 326.093C123.026 325.907 123.296 326.373 123.004 326.558C117.067 330.149 117.244 337.819 118.281 343.861C118.297 343.929 118.286 344 118.251 344.06C118.215 344.121 118.158 344.165 118.09 344.183C118.023 344.202 117.951 344.193 117.89 344.16C117.828 344.126 117.782 344.071 117.761 344.004Z" fill="#3F3D56"/>
<path d="M120.491 339.57C124.35 344.752 129.725 337.813 132.903 335.269C128.664 335.044 121.892 334.17 120.574 339.499" fill="#5BC0BE"/>
<path d="M116.689 345.593C118.871 341.415 122.355 336.69 127.666 337.287C128.011 337.316 127.925 337.848 127.581 337.819C122.536 337.297 119.253 341.835 117.182 345.812C117.013 346.111 116.518 345.895 116.689 345.593Z" fill="#3F3D56"/>
<path d="M545.817 334.754C537.383 337.176 537.283 325.253 535.941 319.888C540.708 323.135 548.746 327.764 545.786 334.609" fill="#5BC0BE"/>
<path d="M545.352 344.004C546.46 337.736 546.529 329.797 540.381 326.093C540.087 325.907 539.817 326.373 540.109 326.558C546.045 330.149 545.869 337.819 544.832 343.861C544.816 343.929 544.827 344 544.862 344.06C544.898 344.121 544.955 344.165 545.023 344.183C545.09 344.202 545.162 344.193 545.223 344.16C545.285 344.126 545.331 344.071 545.352 344.004Z" fill="#3F3D56"/>
<path d="M542.622 339.57C538.763 344.752 533.388 337.813 530.21 335.269C534.449 335.044 541.221 334.17 542.539 339.499" fill="#5BC0BE"/>
<path d="M546.424 345.593C544.242 341.415 540.758 336.69 535.447 337.287C535.102 337.316 535.188 337.848 535.532 337.819C540.577 337.297 543.86 341.835 545.931 345.812C546.1 346.111 546.595 345.895 546.424 345.593Z" fill="#3F3D56"/>
<path d="M581.28 326.428C566.578 330.651 566.404 309.867 564.065 300.514C572.375 306.174 586.386 314.244 581.226 326.176" fill="#5BC0BE"/>
<path d="M580.469 342.554C582.4 331.627 582.522 317.788 571.804 311.331C571.292 311.007 570.821 311.819 571.331 312.141C581.679 318.402 581.371 331.771 579.563 342.304C579.535 342.422 579.554 342.547 579.616 342.652C579.678 342.757 579.778 342.834 579.896 342.866C580.013 342.898 580.138 342.884 580.245 342.825C580.352 342.767 580.432 342.669 580.469 342.553L580.469 342.554Z" fill="#3F3D56"/>
<path d="M575.711 334.824C568.983 343.858 559.614 331.761 554.074 327.327C561.464 326.934 573.269 325.411 575.566 334.7" fill="#5BC0BE"/>
<path d="M582.338 345.323C578.535 338.04 572.462 329.804 563.203 330.844C562.602 330.896 562.752 331.823 563.352 331.772C572.147 330.861 577.869 338.773 581.48 345.706C581.775 346.227 582.636 345.851 582.338 345.323Z" fill="#3F3D56"/>
<path d="M52.2106 343.754H54.6937L55.8752 334.173H52.2106V343.754Z" fill="#FFB6B6"/>
<path d="M51.5774 342.943L56.4679 342.943C57.2944 342.943 58.0873 343.271 58.6718 343.856C59.2562 344.44 59.5846 345.233 59.5847 346.06V346.162L51.5775 346.162L51.5774 342.943Z" fill="#2F2E41"/>
<path d="M63.9593 343.754H66.4424L67.6239 334.173H63.9586L63.9593 343.754Z" fill="#FFB6B6"/>
<path d="M63.3256 342.943L68.216 342.943C69.0426 342.943 69.8355 343.271 70.4199 343.856C71.0044 344.44 71.3328 345.233 71.3328 346.06V346.162L63.3257 346.162L63.3256 342.943Z" fill="#2F2E41"/>
<path d="M68.5935 299.951C68.8034 299.712 68.9583 299.43 69.0473 299.124C69.1364 298.819 69.1574 298.497 69.1089 298.183C69.0603 297.868 68.9435 297.568 68.7665 297.304C68.5895 297.04 68.3568 296.817 68.0846 296.653L64.0433 277.244L59.6406 278.979L64.9974 297.511C64.7512 297.987 64.688 298.537 64.8198 299.056C64.9515 299.575 65.2691 300.028 65.7123 300.329C66.1555 300.629 66.6936 300.757 67.2246 300.687C67.7556 300.618 68.2427 300.356 68.5935 299.951Z" fill="#FFB6B6"/>
<path d="M49.5476 296.214L47.7172 298.072C47.7172 298.072 45.7548 305.266 49.51 314.138L52.0217 339.86L56.5407 340.2L57.8897 310.275L64.1142 320.208L63.027 340.094L68.0222 339.979L70.2798 317.944L64.1142 294.95L49.5476 296.214Z" fill="#2F2E41"/>
<path d="M55.9475 298.717C53.1913 298.698 50.4386 298.516 47.7038 298.173L47.5938 298.158L50.3215 286.166L49.3822 270.736L58.2516 270.433C59.0545 270.403 59.8399 270.672 60.4569 271.187C61.074 271.701 61.4792 272.426 61.5948 273.221L63.4101 285.531L65.0893 296.453L65.0667 296.486C63.86 298.256 59.8255 298.717 55.9475 298.717Z" fill="#5BC0BE"/>
<path d="M57.4447 272.985L59.2468 270.725C59.2468 270.725 62.406 268.564 63.4059 273.195C64.4057 277.826 66.2634 285.344 66.2634 285.344L60.0859 285.844L57.4447 272.985Z" fill="#5BC0BE"/>
<path d="M40.3675 300.154C40.1576 299.915 40.0027 299.632 39.9137 299.327C39.8246 299.021 39.8036 298.7 39.8521 298.386C39.9006 298.071 40.0175 297.771 40.1945 297.507C40.3714 297.242 40.6042 297.02 40.8764 296.855L44.9177 277.447L49.3204 279.182L43.9635 297.714C44.2098 298.19 44.273 298.739 44.1412 299.259C44.0095 299.778 43.6919 300.231 43.2487 300.531C42.8054 300.832 42.2674 300.96 41.7364 300.89C41.2054 300.82 40.7183 300.558 40.3675 300.154Z" fill="#FFB6B6"/>
<path d="M51.5163 273.187L49.7142 270.927C49.7142 270.927 46.555 268.766 45.5551 273.397C44.5553 278.028 42.6976 285.546 42.6976 285.546L48.8751 286.047L51.5163 273.187Z" fill="#5BC0BE"/>
<path d="M59.111 268.176H47.3628C47.1211 268.176 46.8894 268.08 46.7186 267.909C46.5477 267.738 46.4516 267.506 46.4513 267.264V262.199C46.4513 260.399 47.1662 258.672 48.4388 257.399C49.7113 256.126 51.4372 255.411 53.2369 255.411C55.0365 255.411 56.7625 256.126 58.035 257.399C59.3076 258.672 60.0225 260.399 60.0225 262.199V267.264C60.0222 267.506 59.9261 267.738 59.7552 267.909C59.5843 268.08 59.3526 268.176 59.111 268.176Z" fill="#2F2E41"/>
<path d="M54.5339 267.871C57.2815 267.871 59.5089 265.643 59.5089 262.894C59.5089 260.146 57.2815 257.918 54.5339 257.918C51.7863 257.918 49.559 260.146 49.559 262.894C49.559 265.643 51.7863 267.871 54.5339 267.871Z" fill="#FFB6B6"/>
<path d="M61.6277 262.705H54.444L54.3703 261.674L54.002 262.705H52.8958L52.7498 260.661L52.0198 262.705H49.8795V262.604C49.8811 261.181 50.4471 259.816 51.4534 258.809C52.4597 257.803 53.8241 257.236 55.2472 257.235H56.26C57.6831 257.236 59.0474 257.803 60.0537 258.809C61.06 259.816 61.6261 261.181 61.6277 262.604V262.705Z" fill="#2F2E41"/>
<path d="M54.3852 269.122C54.3311 269.122 54.2771 269.117 54.2239 269.107L48.9636 268.179V259.483H54.7541L54.6108 259.65C52.6162 261.977 54.1189 265.75 55.1921 267.792C55.2712 267.941 55.3065 268.11 55.2939 268.279C55.2813 268.448 55.2212 268.61 55.1208 268.746C55.0366 268.862 54.9261 268.957 54.7982 269.022C54.6703 269.088 54.5288 269.122 54.3852 269.122Z" fill="#2F2E41"/>
</g>
<defs>
<clipPath id="clip0_362_219">
<rect width="594" height="346" fill="white" transform="translate(0 0.5)"/>
</clipPath>
</defs>
</svg>
